<svg id="Capa_1" data-name="Capa 1" xmlns="http://www.w3.org/2000/svg" viewBox="0 0 512 512"><g id="Calque_2" data-name="Calque 2"><g id="Calque_3" data-name="Calque 3"><path d="M359,322.4c-19.9,0-48.16-31.85-53.14-40.07a92.59,92.59,0,0,1-9.41-22.95l-.31-.11C282,254,276.92,232.71,277.06,220.56c.08-6.71,1.59-10.63,4.5-11.65a9.49,9.49,0,0,1,3.82-.5l1.86.15.37,1.83c1,4.85,2.13,9.5,3.14,13.22-2.17-28.19,7.85-55.21,19.45-67.57,5.39-5.92,13.44-10.83,22.65-13.8a31,31,0,0,1,9.54-1.22c2.83,0,5.82.21,8.87.41s6.1.42,9.1.42,5.59-.18,8.24-.34c2.85-.18,5.69-.35,8.48-.35A36.32,36.32,0,0,1,389.49,143c13.63,4.9,24.28,15.65,30.8,31.11,5.08,11.64,8,33.47,7,49.85,1-3.78,2.13-8.55,3.07-13.53l.35-1.86,2.57-.17a9.43,9.43,0,0,1,3.09.53c2.9,1,4.42,4.94,4.5,11.65.14,12.15-4.91,33.4-19.07,38.71l-.31.11a93.2,93.2,0,0,1-9.41,22.95C407.14,290.55,378.88,322.4,359,322.4ZM283.22,213.56h0c-.73.69-2.13,6.54-.35,16.47.86,4.78,4.47,20.65,15,24.61a3.43,3.43,0,0,0,.63.16l2,.5.37,1.39c2.5,9.29,5.61,17.06,9.25,23.07,4.37,7.2,31.54,37.7,48.92,37.7,16.53,0,43.4-28.61,48.92-37.7,3.63-6,6.75-13.77,9.25-23.07l.37-1.39,2-.5a3.43,3.43,0,0,0,.63-.16c10.55-4,14.16-19.83,15-24.61,1.67-9.33.53-15.06-.34-16.35-2.13,10.47-4.85,19.26-5,19.65l-.36.72c-1.44,2-5.24,1.87-6.91-.11a3.91,3.91,0,0,1-.89-3.21c2.53-15.74-.29-41.81-5.91-54.7-6-14.18-15.64-24-27.94-28.41a31.38,31.38,0,0,0-10.74-1.54c-2.69,0-5.43.17-8.17.35s-5.51.34-8.23.35h0c-3.42,0-6.61-.22-9.74-.43-2.93-.2-5.81-.4-8.53-.4a26.23,26.23,0,0,0-8,1c-8.41,2.71-15.7,7.13-20.54,12.45-9.5,10.12-22.56,38.41-17.27,71.36a3.92,3.92,0,0,1-.9,3.22c-1.67,1.95-5.4,2.07-6.84.09l-.36-.69C288.34,233,285.47,224.14,283.22,213.56Z" style="fill:#1881af"/><path d="M359,105.38h0c-43.65,0-79,19.85-79,63.42a192.49,192.49,0,0,0,4.6,38.68c.2,1.14.41,2.27.64,3.39a214.64,214.64,0,0,0,5.62,21.74c.76,1,3.61.4,3.31-1.47-5.11-31.83,6.82-61.63,17.88-73.41,4.88-5.36,12.46-10.18,21.61-13.13,7.26-2.34,17.55-.23,27.06-.28s19.49-2.06,28,1c12.62,4.53,23,14.72,29.37,29.74,5.94,13.64,8.59,40.46,6.09,56.09-.3,1.87,2.6,2.51,3.36,1.47a221,221,0,0,0,5.36-21.74c.22-1.14.42-2.29.61-3.45A192,192,0,0,0,438,168.8C438,125.23,402.65,105.38,359,105.38Z" style="fill:#1881af"/><path d="M407.76,339c.23.27.47.52.7.78C408.23,339.48,408,339.23,407.76,339Z" style="fill:#f9d5be"/><path d="M415.32,345.12c.36.19.72.39,1.1.57C416,345.51,415.68,345.31,415.32,345.12Z" style="fill:#f9d5be"/><path d="M405.81,336.37c.14.21.29.4.43.6C406.1,336.77,406,336.58,405.81,336.37Z" style="fill:#f9d5be"/><path d="M311.7,337c.16-.22.33-.43.48-.66C312,336.58,311.86,336.79,311.7,337Z" style="fill:#f9d5be"/><path d="M301.56,345.69c.38-.18.74-.38,1.11-.58C302.3,345.31,301.94,345.51,301.56,345.69Z" style="fill:#f9d5be"/><path d="M309.51,339.75c.24-.26.49-.53.72-.8C310,339.22,309.75,339.49,309.51,339.75Z" style="fill:#f9d5be"/><path d="M418.6,346.55c.34.12.67.27,1,.38C419.27,346.82,418.94,346.67,418.6,346.55Z" style="fill:#f9d5be"/><path d="M298.35,346.93c.36-.11.69-.26,1-.39C299,346.67,298.71,346.82,298.35,346.93Z" style="fill:#f9d5be"/><path d="M304.48,344.07c.35-.23.69-.47,1-.72C305.17,343.6,304.83,343.84,304.48,344.07Z" style="fill:#f9d5be"/><path d="M412.48,343.36c.34.25.67.48,1,.71C413.15,343.84,412.82,343.61,412.48,343.36Z" style="fill:#f9d5be"/><path d="M410.86,342.09c-.3-.26-.6-.52-.88-.79C410.26,341.57,410.56,341.83,410.86,342.09Z" style="fill:#f9d5be"/><path d="M358.93,352.06c-30.94,0-44.93-19.51-45.51-20.34l-.79-1.13.55-1.26c2.47-5.7,4.07-12.83,4.76-21.19l.41-5.06,3.73,3.45C336.9,320.27,350,327.84,359,327.84s22.19-7.54,36.91-21.24l3.72-3.46.42,5.07c.7,8.33,2.29,15.43,4.76,21.12l.55,1.26-.8,1.13C404,332.55,390,352.06,358.93,352.06Zm-40.65-22.14c3.26,3.91,16.19,17.21,40.65,17.21s37.52-13.37,40.77-17.21a69.05,69.05,0,0,1-4.06-16.43c-10.75,9.45-24.8,19.29-36.65,19.29s-25.84-9.88-36.65-19.36A69.06,69.06,0,0,1,318.28,329.92Z" style="fill:#1881af"/><path d="M308,341.29c-.29.28-.59.54-.89.8C307.42,341.83,307.72,341.57,308,341.29Z" style="fill:#f9d5be"/><path d="M299.39,346.54c.74-.26,1.48-.53,2.17-.85C300.87,346,300.13,346.28,299.39,346.54Z" style="fill:#236199"/><path d="M261.26,353.87c4.43-1,9-1.93,13.5-2.75C270.23,351.94,265.69,352.85,261.26,353.87Z" style="fill:#236199"/><path d="M302.67,345.11c.62-.33,1.23-.67,1.81-1C303.9,344.44,303.29,344.78,302.67,345.11Z" style="fill:#236199"/><path d="M298.35,346.93a27.33,27.33,0,0,1-3.54.83c-6.45,1.05-13.24,2.12-20.05,3.36,6.81-1.24,13.6-2.31,20.05-3.36A27.33,27.33,0,0,0,298.35,346.93Z" style="fill:#236199"/><path d="M443.21,351.12c4.54.82,9.08,1.73,13.51,2.75C452.29,352.85,447.75,351.94,443.21,351.12Z" style="fill:#236199"/><path d="M413.5,344.07c.58.38,1.19.72,1.82,1.05C414.7,344.79,414.08,344.45,413.5,344.07Z" style="fill:#236199"/><path d="M469.62,357.37a97,97,0,0,1,11.67,4.53A97,97,0,0,0,469.62,357.37Z" style="fill:#236199"/><path d="M443.21,351.12c-6.8-1.24-13.6-2.31-20-3.36a27.56,27.56,0,0,1-3.53-.83,27.56,27.56,0,0,0,3.53.83C429.61,348.81,436.41,349.88,443.21,351.12Z" style="fill:#236199"/><path d="M416.42,345.69c.69.32,1.43.59,2.18.86C417.85,346.28,417.11,346,416.42,345.69Z" style="fill:#236199"/><path d="M406.24,337c.49.68,1,1.35,1.52,2C407.23,338.32,406.73,337.65,406.24,337Z" style="fill:#236199"/><path d="M410,341.3c-.53-.49-1-1-1.52-1.56C409,340.28,409.45,340.81,410,341.3Z" style="fill:#236199"/><path d="M410.86,342.09c.52.44,1.06.87,1.62,1.27C411.92,343,411.38,342.53,410.86,342.09Z" style="fill:#236199"/><path d="M402.53,330.31a37.87,37.87,0,0,0,3.28,6.06A37.87,37.87,0,0,1,402.53,330.31Z" style="fill:#236199"/><path d="M312.18,336.35a37.59,37.59,0,0,0,3.26-6A37.59,37.59,0,0,1,312.18,336.35Z" style="fill:#236199"/><path d="M278.35,512.09,251.35,354c13.78-4.65,22.77-5.42,36.82-7.69l.9-.15c12.84-2.08,19.82-7,24.11-16.86l1.7-3.93,2.55,3.45c8.57,11.61,24.13,18.54,41.61,18.54s33-6.93,41.5-18.54l2.55-3.47,1.71,3.95c3.6,8.33,9.69,13.89,17.13,15.66,6,1.42,12.18,2.41,18.19,3.37,6.19,1,12.59,2,18.83,3.5,18.66,4.49,43.35,12.91,46.72,34.61.05.21.09.44.13.69h.07L506,389c0,.23,0,.46,0,.7h0c.07,1.28.13,2.42.18,3.45l.4,7.58h-.12c0,.16,0,.3,0,.44,1,35.24.37,108.07.36,108.78l0,2.45M289.86,351.06" style="fill:none;stroke:#1881af;stroke-miterlimit:10;stroke-width:13px"/><path d="M380.76,418.57a5.35,5.35,0,1,1-5.34-5.37A5.35,5.35,0,0,1,380.76,418.57Z" style="fill:#1881af"/><path d="M380.76,456a5.35,5.35,0,1,1-5.34-5.37A5.35,5.35,0,0,1,380.76,456Z" style="fill:#1881af"/><rect x="356.48" y="387.41" width="4.31" height="122.55" style="fill:none;stroke:#1881af;stroke-miterlimit:10;stroke-width:5px"/></g><g id="Calque_5" data-name="Calque 5"><path d="M272.22,315.21c-12.61-22.28-13.75-64.19-12.6-99.43-2.61,11.81-8.57,24.14-18.69,27.93a14.35,14.35,0,0,1-1.68.43c-2.66,9.89-6.22,19.5-11.05,27.44-5.57,9.16-37.49,45-59.24,45-21.46,0-53.67-35.84-59.24-45-4.83-7.94-8.39-17.55-11-27.44a14.35,14.35,0,0,1-1.68-.43C76.48,236,73,193.25,80,190.8a8.86,8.86,0,0,1,1.76-.39,161.76,161.76,0,0,0,8.44,18.09c.88,1.21,4.06.48,3.83-1.71-5.85-55.69,30.47-33.12,27.81-83.14,0,0,47,40,73.55,11.24,0,0,4.74,9.31,11.37,14.44a23.32,23.32,0,0,0,30.78-2.08l.14-.15c6.89,15.78,10,41.61,7.05,59.69-.35,2.17,3,2.92,3.9,1.71,0,0,13.54-27.22,13.56-45.36,0-18-13.36-86.33-90.48-86.33-35.07,0-60.06,13.21-75.79,31.49l-.2-.13A84,84,0,0,0,76.59,150c-.11.72-.21,1.43-.3,2.15-.15,1.23-.26,2.47-.35,3.72-.14,1.82-.24,3.63-.25,5.43h0c0,1.21,0,2.73,0,4.41,0,.27,0,.54,0,.8v0c.42,32.32,3.53,139.35-10,148.62-3.36,2.3,16.13,12.86,43.35,21,10.07-8.86,13.92-24.41,15.11-38.79,13.6,12.56,31.12,25.42,44.8,25.42,13.84,0,31.28-12.8,44.8-25.34,1.23,14.69,5.22,30.58,15.79,39.31C255.63,329.05,274.2,318.69,272.22,315.21Zm-179-55.63a5.48,5.48,0,1,1,5.48-5.48A5.49,5.49,0,0,1,93.27,259.58Zm151.83,0a5.48,5.48,0,1,1,5.47-5.48A5.48,5.48,0,0,1,245.1,259.58Z" style="fill:#1881af"/><path d="M254.68,190.37a8.08,8.08,0,0,1,3.22.43c1.2.42,2.07,2.09,2.63,4.51.81-15,1.71-27.29,1.71-34,0-20.41-8-39.17-20.82-54.06l.59.84s-1.94,1.25-5.23,3.19c17.39,21.14,20.22,48.46,20.2,58.87A113.34,113.34,0,0,1,254.68,190.37Z" style="fill:#1881af"/><path d="M169,319.92c-22.85,0-55.37-36.61-61.11-46.05-4.31-7.09-8-16.08-10.95-26.74-.21-.06-.44-.13-.67-.22C81,241.2,74.35,217.65,74.53,202.75c.06-5.13.94-11.53,4.78-12.86a10.18,10.18,0,0,1,4.15-.55l1.65.13.32,1.63c1.84,9.17,4.27,17.69,5.57,22-2.28-28.25,6.4-36.39,14.8-44.27,7.58-7.11,14.74-13.82,13.51-36.86l-.59-11.15,4.76,10.1c.17.37,18,37,65,37h0a103.31,103.31,0,0,0,15.41-1.21c-7.36-6-11.55-16.16-11-23.76l.59-7.78,3.55,7c0,.09,4.61,8.95,10.77,13.71a21.18,21.18,0,0,0,27.92-1.89l2.27-2.3,1.43,2.82c7,15.94,10.1,41.53,7.37,60,1.09-3.69,3.74-13.12,5.67-23.28l.32-1.65,1.68-.12a10.11,10.11,0,0,1,4.09.55c1.93.67,3.26,2.66,4,6.08,1.21,5.25.86,13.46-.9,21.43-1.6,7.21-6.74,24.53-20.06,29.51-.24.09-.46.16-.68.22-3,10.66-6.64,19.65-11,26.74C224.33,283.31,191.81,319.92,169,319.92ZM81.52,193.81a5.16,5.16,0,0,0-.77.21c-.65.35-2.29,4-1.74,12.64.93,14.38,7.19,31.83,18.75,36.15a5.93,5.93,0,0,0,.82.22l1.87.46.33,1.24c2.92,10.81,6.55,19.85,10.81,26.86,5.11,8.39,36.94,44,57.37,44,20.8,0,52.08-35.25,57.36-44,4.27-7,7.9-16,10.81-26.86l.34-1.24,1.87-.46a6.91,6.91,0,0,0,.83-.22c11.3-4.23,15.87-19.84,17.31-26.36,1.63-7.37,2-14.84.91-19.5-.57-2.47-1.24-2.93-1.25-2.94a5.12,5.12,0,0,0-.67-.19c-2.5,12.49-5.88,23.4-5.92,23.51l-.32.64c-1.43,2-5.28,1.81-7-.17a3.86,3.86,0,0,1-.88-3.17c2.65-16.46.12-40.15-5.76-55.63a25.9,25.9,0,0,1-31.44.25,36.51,36.51,0,0,1-5.8-5.79c2.27,5.17,6.28,10.06,11.44,12.38l6.25,2.8L210.37,170a111.46,111.46,0,0,1-21.84,2.28c-36.78,0-56.72-21.21-64.75-32.54-.65,18.85-7.92,25.67-15,32.3-8.17,7.66-15.89,14.9-13,42.73a4,4,0,0,1-1,3.15c-1.71,1.9-5.37,2-6.78.07l-.31-.61C87.7,217.25,84.15,206.35,81.52,193.81Z" style="fill:#1881af"/><path d="M80.79,173.51a126.49,126.49,0,0,0,2.34,16.82,247.34,247.34,0,0,0,6.55,25.2c.88,1.21,4.08.48,3.84-1.71-5.87-55.78,30.56-33.18,27.89-83.28,0,0,23.08,49.23,88.6,36.06-9.22-4.13-15.49-15.92-14.82-24.8,0,0,4.75,9.32,11.41,14.47a23.43,23.43,0,0,0,30.87-2.09l.14-.14c6.91,15.8,10,41.67,7.08,59.78-.35,2.17,3,2.92,3.91,1.71a258.85,258.85,0,0,0,6.23-25.2,114.85,114.85,0,0,0,2.31-20.23c0-10.43-2.82-37.8-20.24-59-11.33,6.67-39.42,21.91-66,25.95,0,0-.75-.08-2-.28-1.29.2-2,.28-2,.28-26.13-4-53.71-18.74-65.43-25.59C85.69,129.16,79.56,152.56,80.79,173.51Z" style="fill:#1881af"/><path d="M164,383.09v38.08l4.93,7.6,4.93-7.52V383.09Zm4.93,8.43a3,3,0,1,1-3,3A3,3,0,0,1,169,391.52Zm0,27.94a3,3,0,1,1,3-3A3,3,0,0,1,169,419.46Z" style="fill:#fff"/><path d="M164,383.09v38.08l4.93,7.6,4.93-7.52V383.09ZM169,419.46a3,3,0,1,1,3-3A3,3,0,0,1,169,419.46Zm0-22a3,3,0,1,1,3-3A3,3,0,0,1,169,397.44Z" style="fill:#1881af"/><path d="M95.36,380.06l4.4-36.45.48-.54,23.59-25.92,45.09,49.17,45.63-49.16,24.06,26.43,4.4,36.47-28.93-22.72L169,378.23l-44.69-20.88Zm28.34-27.82L169,373.39l45.69-21.15,22.72,17.85-3-24.59-19.9-21.86L168.9,372.78l-45.06-49.13L104,345.5l-3,24.59Z" style="fill:#1881af"/><path d="M336.76,396.86c-1.86-35.28-53.38-42.24-93.3-48.74-.8-.13-1.53-.35-2.29-.53l3.93,35.79-30.7-22.45-40.51,64L169,432.46l-4.93-7.6-40.09-63.93L93.27,383.38l3.94-35.9c-.9.23-1.79.49-2.75.64C54.54,354.62,3,361.58,1.16,396.86S.23,512.44.23,512.44H337.69S338.62,432.14,336.76,396.86Z" style="fill:#1881af"/><polygon points="205.88 57.09 205.88 57.09 205.88 57.09 205.88 57.09" style="fill:#abbaeb"/></g></g></svg>