<svg id="Capa_1" data-name="Capa 1" xmlns="http://www.w3.org/2000/svg" viewBox="0 0 512 512"><path d="M112,96h32a16,16,0,0,0,16-16V16A16,16,0,0,0,144,0H112A16,16,0,0,0,96,16V80A16,16,0,0,0,112,96Zm400,32V448a64,64,0,0,1-64,64H64A64,64,0,0,1,0,448V128A64,64,0,0,1,64,64H80V80a32.06,32.06,0,0,0,32,32h32a32.06,32.06,0,0,0,32-32V64H336V80a32.07,32.07,0,0,0,32,32h32a32.07,32.07,0,0,0,32-32V64h16A64,64,0,0,1,512,128Zm-32,64a32,32,0,0,0-32-32H64a32,32,0,0,0-32,32V448a32,32,0,0,0,32,32H448a32,32,0,0,0,32-32ZM368,96h32a16,16,0,0,0,16-16V16A16,16,0,0,0,400,0H368a16,16,0,0,0-16,16V80A16,16,0,0,0,368,96Z" style="fill:#1881af"/><g style="isolation:isolate"><text transform="translate(166.43 297.62)" style="isolation:isolate;font-size:130px;fill:#1880ae;font-family:MyriadPro-Bold, Myriad Pro;font-weight:700"><tspan xml:space="preserve">  2</tspan></text><text transform="translate(133.12 394.42)" style="isolation:isolate;font-size:67px;fill:#1880ae;font-family:Futura-ExtraBold;font-weight:800">JOURS</text></g></svg>