<svg id="Capa_1" data-name="Capa 1" xmlns="http://www.w3.org/2000/svg" viewBox="0 0 512 512"><path d="M294,39.19H247.64A11.77,11.77,0,0,1,240,36.51a8.18,8.18,0,0,1-3-6.25C236.94,13.57,220.55,0,200.41,0s-36.52,13.57-36.52,30.24a8.22,8.22,0,0,1-3,6.27,11.77,11.77,0,0,1-7.66,2.68h-46.4V86H294ZM200.41,34.5c-4.54,0-8.23-3.05-8.23-6.81s3.69-6.82,8.23-6.82,8.23,3.05,8.23,6.82S205,34.5,200.41,34.5Z" style="fill:#1881af"/><path d="M321.06,470.38l.12-.12,9.91-9.48a.76.76,0,0,0,.16-.94l-5.23-9.3a1.2,1.2,0,0,0-1-.55l-15.69-1h-.2l-.21,0a20.79,20.79,0,0,1-10.9-4h0a11.52,11.52,0,0,1-4.8-8.8h0l-.4-22.74h0a10.21,10.21,0,0,1,1.34-5.19c2.45-4.39,7.89-7.46,14.2-8l15.77-1.36a1.18,1.18,0,0,0,1-.57l4.9-9.4a.77.77,0,0,0-.2-.94l-10.14-9.21-.13-.12-.13-.12a11.68,11.68,0,0,1-4-9.46h0a11.61,11.61,0,0,1,4.7-8.08h0l20.74-16.31h0a17.48,17.48,0,0,1,5.05-2.72h0a22.63,22.63,0,0,1,11-.83,19.71,19.71,0,0,1,6.77,2.45l.16.09.16.09,12.38,7.57a1.47,1.47,0,0,0,.77.22,1.4,1.4,0,0,0,.48-.09l12.14-4a1,1,0,0,0,.72-.77l1.35-12v-.16l0-.15a12.85,12.85,0,0,1,5.17-8.29h0a19.53,19.53,0,0,1,11.56-3.72h0l18.31-.19V76.71c0-6.84-7.25-12.39-16.2-12.39H327.35V90c0,4.89-5.19,8.86-11.59,8.86H102.89c-6.4,0-11.59-4-11.59-8.86V64.32H16.2C7.25,64.32,0,69.87,0,76.71V482.14c0,6.85,7.25,12.4,16.2,12.4h315L322.39,488a13.25,13.25,0,0,1-3.57-3.89h0c-2.63-4.44-1.81-9.65,2.12-13.61ZM143.47,138.44H375.06v12.77H143.47Zm0,53.84H375.06v12.78H143.47Zm0,53.84H375.06V258.9H143.47Zm0,53.84H306.19v12.78H143.47ZM93.31,418.48l-11.81,9-11.8-9h0L51.94,404.89l11.8-9L81.5,409.45l32.79-25.09,11.81,9Zm0-63.25-11.81,9-11.8-9h0L51.94,341.64l11.8-9L81.5,346.2l32.79-25.09,11.81,9Zm0-63.26L81.5,301l-11.8-9h0L51.94,278.38l11.8-9L81.5,282.94l32.79-25.09,11.81,9Zm0-63.25-11.81,9-11.8-9h0L51.94,215.13l11.8-9L81.5,219.69l32.79-25.09,11.81,9Zm0-63.26-11.81,9-11.8-9h0L51.94,151.87l11.8-9L81.5,156.43l32.79-25.09,11.81,9Zm122.53,255H143.47V407.64h72.37Zm30.06-53.84H143.47V353.8H245.9Z" style="fill:#1881af"/><path d="M508.66,410.84a1.06,1.06,0,0,0-.65-.27l-13-1a14.77,14.77,0,0,1-12.37-8.24L478.27,392a12.83,12.83,0,0,1,2-13.95l8.21-9.5a.7.7,0,0,0,.16-.61L471,352.08h0a1.24,1.24,0,0,0-.68.26l-10,7.76a15.55,15.55,0,0,1-9.55,3.23,15.93,15.93,0,0,1-5.51-1l-10.17-3.74a13.88,13.88,0,0,1-9.25-11.2l-1.47-12.08a.8.8,0,0,0-.35-.53l-24.65.3a1,1,0,0,0-.29.64l-1.12,12a13.81,13.81,0,0,1-8.92,11.43l-10.07,4a15.87,15.87,0,0,1-5.86,1.11,15.65,15.65,0,0,1-9.26-3l-10.29-7.58a.94.94,0,0,0-.53-.17l-.12,0-17.2,16.3a1.07,1.07,0,0,0,.28.64l8.41,9.21a12.86,12.86,0,0,1,2.43,13.91L342.8,403a14.72,14.72,0,0,1-12.14,8.54l-13.07,1.36a.81.81,0,0,0-.59.32l.34,22.74a1.17,1.17,0,0,0,.68.27l13,1a14.77,14.77,0,0,1,12.37,8.24l4.33,9.29a12.85,12.85,0,0,1-2,14l-8.22,9.49a.71.71,0,0,0-.16.6L355,494.71h0a1.14,1.14,0,0,0,.65-.25l10-7.77a15.57,15.57,0,0,1,9.36-3.22h.19a15.85,15.85,0,0,1,5.51,1l10.18,3.75a13.87,13.87,0,0,1,9.25,11.19l1.47,12.08a.76.76,0,0,0,.34.53l24.65-.31a1,1,0,0,0,.3-.63l1.11-12A13.8,13.8,0,0,1,437,487.63l10.07-4a15.83,15.83,0,0,1,15.12,1.88l10.28,7.58a1,1,0,0,0,.54.17h.12L490.27,477a1,1,0,0,0-.28-.64l-8.41-9.22a12.84,12.84,0,0,1-2.43-13.9l4.05-9.39a14.73,14.73,0,0,1,12.14-8.54l13.08-1.35a1,1,0,0,0,.58-.32Zm-95.07,54.23H413c-24.63,0-44.83-18.33-45.15-41.13-.33-23,19.66-41.92,44.56-42.22H413c24.62,0,44.81,18.34,45.14,41.13C458.48,445.83,438.5,464.77,413.59,465.07Z" style="fill:#1881af"/></svg>