<svg id="Capa_1" data-name="Capa 1" xmlns="http://www.w3.org/2000/svg" viewBox="0 0 512 512"><path d="M287.49,39.19H249.07a8.76,8.76,0,0,1-6.34-2.68,8.93,8.93,0,0,1-2.53-6.25,30.24,30.24,0,1,0-60.48,0,8.93,8.93,0,0,1-2.52,6.27,8.79,8.79,0,0,1-6.35,2.68H132.44V86H287.49ZM210,34.5a6.82,6.82,0,1,1,6.82-6.81A6.81,6.81,0,0,1,210,34.5Z" style="fill:#1881af"/><path d="M295.45,470.38l.1-.12,7.58-9.48a.92.92,0,0,0,.12-.94l-4-9.3a.9.9,0,0,0-.76-.55l-12-1h-.15l-.15,0a13.86,13.86,0,0,1-8.34-4h0a12.79,12.79,0,0,1-3.68-8.8h0l-.31-22.74h0a12.86,12.86,0,0,1,1-5.19,13.4,13.4,0,0,1,10.86-8l12.07-1.36a.91.91,0,0,0,.76-.57l3.75-9.4a1,1,0,0,0-.16-.94l-7.76-9.21-.1-.12-.1-.12a13.71,13.71,0,0,1-3-9.46h0a12.75,12.75,0,0,1,3.59-8.08h0l15.87-16.31h0a12.79,12.79,0,0,1,3.87-2.72h0a13.47,13.47,0,0,1,8.45-.83,13.17,13.17,0,0,1,5.18,2.45l.12.09.12.09,9.47,7.57a.92.92,0,0,0,.59.22.87.87,0,0,0,.37-.09l9.28-4a.92.92,0,0,0,.56-.77l1-12v-.16l0-.15a13.88,13.88,0,0,1,3.95-8.29h0a12.75,12.75,0,0,1,8.84-3.72h0l14-.19V76.71a12.39,12.39,0,0,0-12.39-12.39H300.26V90a8.86,8.86,0,0,1-8.86,8.86H128.53A8.87,8.87,0,0,1,119.66,90V64.32H62.2A12.4,12.4,0,0,0,49.8,76.71V482.14a12.4,12.4,0,0,0,12.4,12.4h241L296.47,488a12.62,12.62,0,0,1-2.73-3.89h0a13.37,13.37,0,0,1,1.62-13.61ZM159.57,138.44h177.2v12.77H159.57Zm0,53.84h177.2v12.78H159.57Zm0,53.84h177.2V258.9H159.57Zm0,53.84H284.08v12.78H159.57ZM121.19,418.48l-9,9-9-9h0L89.54,404.89l9-9,13.59,13.59,25.09-25.09,9,9Zm0-63.25-9,9-9-9h0L89.54,341.64l9-9,13.59,13.59,25.09-25.09,9,9Zm0-63.26-9,9-9-9h0L89.54,278.38l9-9,13.59,13.59,25.09-25.09,9,9Zm0-63.25-9,9-9-9h0L89.54,215.13l9-9,13.59,13.59,25.09-25.09,9,9Zm0-63.26-9,9-9-9h0L89.54,151.87l9-9,13.59,13.59,25.09-25.09,9,9Zm93.76,255H159.57V407.64H215Zm23-53.84H159.57V353.8H238Z" style="fill:#1881af"/><path d="M463.52,410.84a1,1,0,0,0-.6-.27l-12-1a13.66,13.66,0,0,1-11.41-8.24l-4-9.29a13.7,13.7,0,0,1,1.88-13.95l7.58-9.5a.75.75,0,0,0,.15-.61l-16.3-15.87h0a1.11,1.11,0,0,0-.63.26l-9.21,7.76a13.66,13.66,0,0,1-13.9,2.25l-9.39-3.74a13.67,13.67,0,0,1-8.54-11.2l-1.36-12.08a.76.76,0,0,0-.32-.53l-22.75.3a1.13,1.13,0,0,0-.27.64l-1,12a13.69,13.69,0,0,1-8.24,11.43l-9.29,4a13.73,13.73,0,0,1-14-1.88l-9.49-7.58a.83.83,0,0,0-.49-.17l-.11,0-15.87,16.3a1.08,1.08,0,0,0,.25.64l7.77,9.21a13.68,13.68,0,0,1,2.24,13.91L310.44,403a13.69,13.69,0,0,1-11.2,8.54l-12.07,1.36a.72.72,0,0,0-.54.32l.31,22.74a1,1,0,0,0,.63.27l12,1A13.69,13.69,0,0,1,311,445.5l4,9.29a13.68,13.68,0,0,1-1.88,14l-7.58,9.49a.77.77,0,0,0-.15.6l16.3,15.87h0a1,1,0,0,0,.6-.25l9.22-7.77a13.67,13.67,0,0,1,8.64-3.22h.18a13.65,13.65,0,0,1,5.08,1l9.39,3.75a13.66,13.66,0,0,1,8.54,11.19l1.36,12.08a.79.79,0,0,0,.31.53l22.75-.31a1,1,0,0,0,.28-.63l1-12a13.69,13.69,0,0,1,8.24-11.42l9.3-4a13.64,13.64,0,0,1,13.95,1.88l9.49,7.58a.9.9,0,0,0,.5.17h.11L446.55,477a1.11,1.11,0,0,0-.26-.64l-7.76-9.22a13.67,13.67,0,0,1-2.25-13.9L440,443.8a13.72,13.72,0,0,1,11.21-8.54l12.07-1.35a.83.83,0,0,0,.53-.32Zm-87.74,54.23h-.55a41.68,41.68,0,0,1-.54-83.35h.56a41.68,41.68,0,0,1,.53,83.35Z" style="fill:#1881af"/></svg>